<svg xmlns="http://www.w3.org/2000/svg" viewBox="0 0 16.87 13.01"><defs><style>.cls-1{isolation:isolate;}.cls-2{fill:#ff8e00;fill-rule:evenodd;}</style></defs><title>제목 없음-11</title><g id="Shape_4_copy" data-name="Shape 4 copy" class="cls-1"><g id="Shape_4_copy-2" data-name="Shape 4 copy"><path class="cls-2" d="M5,5.86a4,4,0,0,0-1.36-.1c.16-3.18,3-5.76,3-5.76C-.53,3.56.13,8.67.13,8.67H.19A3.63,3.63,0,0,0,3,12.89a3.88,3.88,0,0,0,4.72-2.58A3.61,3.61,0,0,0,5,5.86Z" transform="translate(-0.11 0)"/></g></g><g id="Shape_4_copy_3" data-name="Shape 4 copy 3" class="cls-1"><g id="Shape_4_copy_3-2" data-name="Shape 4 copy 3"><path class="cls-2" d="M14.12,5.86a3.91,3.91,0,0,0-1.36-.1c.17-3.18,3-5.76,3-5.76C8.64,3.56,9.3,8.67,9.3,8.67h.06a3.62,3.62,0,0,0,2.77,4.22,3.88,3.88,0,0,0,4.72-2.58A3.62,3.62,0,0,0,14.12,5.86Z" transform="translate(-0.11 0)"/></g></g></svg>